<?xml version="1.0" standalone="no"?>
<!DOCTYPE svg PUBLIC "-//W3C//DTD SVG 20010904//EN"
 "http://www.w3.org/TR/2001/REC-SVG-20010904/DTD/svg10.dtd">
<svg version="1.0" xmlns="http://www.w3.org/2000/svg"
 width="700.000000pt" height="700.000000pt" viewBox="0 0 700.000000 700.000000"
 preserveAspectRatio="xMidYMid meet">
<metadata>
Created by potrace 1.11, written by Peter Selinger 2001-2013
</metadata>
<g transform="translate(0.000000,700.000000) scale(0.100000,-0.100000)"
fill="#000000" stroke="none">
<path d="M2647 6486 c-45 -16 -74 -40 -93 -77 -16 -31 -804 -3261 -804 -3296
0 -41 26 -89 65 -119 73 -55 65 -57 935 160 432 108 790 195 796 194 6 -2
-131 -582 -342 -1448 -456 -1867 -425 -1731 -412 -1777 22 -80 113 -132 206
-118 97 14 19 -140 1184 2355 965 2067 1062 2280 1063 2326 0 88 -73 158 -165
157 -25 0 -393 -87 -819 -192 -425 -106 -774 -191 -776 -189 -1 2 144 397 322
878 399 1081 367 987 354 1036 -13 48 -65 101 -112 114 -21 6 -292 10 -699 10
-535 -1 -672 -4 -703 -14z"/>
</g>
</svg>
